<svg version="1.2" xmlns="http://www.w3.org/2000/svg" viewBox="0 0 1000 127" width="1000" height="127">
	<title>schonlogokirmizi (1)</title>
	<style>
		.s0 { fill: #ef4444 }
	</style>
	<g>
		<path class="s0" d="m835 14v8h8.5 8.5v-8-8h-8.5-8.5z"/>
		<path class="s0" d="m860.5 14v8h8.5 8.5v-8-8h-8.5-8.5z"/>
		<path class="s0" d="m310.25 28.3c-8.5 1.5-15.15 4.7-20.5 9.75-4.05 3.9-6.35 7.5-8.3 12.85-2.1 6-2.6 10.45-2.3 19.95 0.4 13.85 2.95 20.9 10.05 27.9 6.15 6.1 12.65 8.8 23.45 9.75 12.15 1.05 22.95-1.4 31.3-7.15 2.5-1.7 2.6-1.7 3.85 3l0.85 3.15h6.4 6.45v-22-22h-20.75-20.75v8 8h8.8 8.85l-0.3 1.75c-0.9 5.5-7.75 9.1-16.35 8.65-8.65-0.5-13.75-4.4-15.8-12-0.95-3.7-0.95-15.8 0.05-19.65 1.35-5.25 4.6-9 9.25-10.85 3.75-1.45 11.1-1.55 14.95-0.2 3.75 1.3 7.4 4.85 7.85 7.7l0.35 2.1h11.9 11.95v-2.15c0-2.95-1.25-7.5-2.9-10.5-4.4-8.1-13.95-13.95-26.05-16.05-5.8-1-16.75-1-22.3 0z"/>
		<path class="s0" d="m571.65 28.2c-4.85 0.95-8.25 2.1-12.25 4.15-5 2.6-7.6 5.1-9.75 9.45-1.7 3.45-1.85 4.15-2.05 9.2-0.2 4.55-0.05 6 0.85 8.95 0.9 3.05 1.55 4.1 4.3 7 5.1 5.4 10.1 7.5 27 11.3 9.3 2.1 12.85 3.6 13.75 5.75 0.75 1.8 0.15 3.85-1.55 5.1-2.95 2.2-13.65 2.3-18.15 0.15-2.15-1.05-3.8-3.85-3.8-6.5v-1.75h-12.05-12.1l0.35 3.6c1.3 13.05 8.5 20 23.8 22.9 5.05 0.95 14.15 1.4 19.6 1 19-1.55 28.9-9.85 29.75-25 0.45-8.1-1.8-13.45-7.6-17.85-4.7-3.55-8.9-5.1-22.75-8.15-10.65-2.4-13.2-3.25-14.7-5.05-1.7-2-1.65-3.7 0.1-5.45 1.8-1.8 4.35-2.5 9.05-2.5 6.05 0 9.4 2.25 10.3 6.8l0.3 1.7h11.7 11.75v-1.4c-0.05-2.7-1.5-8.15-2.85-10.65-2.8-5.25-9.5-9.7-17.9-12-5.15-1.35-19.45-1.8-25.1-0.75z"/>
		<path class="s0" d="m657.65 28.55c-8.3 1.75-13.55 4.4-18.65 9.6-8.05 8.1-11.65 23.45-9.25 39.4 2.85 18.95 14.3 29.2 34.6 30.9 19.55 1.65 34.2-4.6 40.1-17.1 1.75-3.75 3.05-9.3 3.05-13.05v-2.8h-11.5-11.5v1.4c0 5.5-4 10.85-9.2 12.35-3.9 1.15-9.7 0.85-12.6-0.65-3.1-1.6-5.55-4.75-6.85-8.85-0.95-3-1.1-4.65-1.05-11.75 0-9.75 0.9-13.8 3.95-17.35 4.85-5.65 14.95-6.2 20.5-1.1 2.5 2.3 4.25 6.25 4.25 9.45v2h12.05 12.1l-0.25-4.15c-1-15.3-11.65-26.1-28.5-28.85-5.2-0.85-16.05-0.55-21.25 0.55z"/>
		<path class="s0" d="m847.25 27.85c-14.05 1.9-24.45 8.9-29.5 19.9-2.7 5.85-3.35 9.1-3.6 18.5-0.2 7.25-0.1 9.25 0.8 13.5 3.5 17.25 15.8 27.1 35.8 28.75 21.35 1.7 37.25-5.6 44-20.25 2.65-5.7 3.35-9.15 3.6-18.1 0.3-8.85-0.15-12.65-2.15-18.7-4.05-12.35-14.45-20.65-29.05-23.2-3.95-0.7-15.95-0.95-19.9-0.4zm16 19.45c3.3 1.15 6.8 4.8 8.3 8.55 0.95 2.4 1.15 4.15 1.35 10.3 0.3 10.75-0.7 14.9-4.7 19.3-2.8 3.15-6.05 4.3-11.95 4.3-5.65 0-8.65-1-11.65-3.9-4.05-3.85-5.3-8.7-5-19.35 0.2-6.4 0.4-8.25 1.3-10.5 1.95-5 5.85-8.5 10.65-9.5 3-0.65 8.7-0.25 11.7 0.8z"/>
		<path class="s0" d="m8 68v39.5h27.65c30.05 0 31.65-0.15 37.15-2.85 6.35-3.1 10.5-9.25 11.05-16.35 0.55-7.25-1.45-13-5.85-16.95-2.15-1.95-6.85-4.35-8.5-4.35-1.3 0-0.25-0.85 1.95-1.65 3.35-1.2 7.6-5.15 9.1-8.45 1.05-2.3 1.2-3.4 1.2-8.4 0-5.6-0.05-5.85-1.7-8.9-3.2-5.9-8.75-9.5-16.25-10.55-2.35-0.35-13.95-0.55-29.85-0.55h-25.95zm46.8-20.3c1.55 1.55 1.7 1.95 1.7 4.6 0 3.8-1.25 5.95-3.85 6.7-1.15 0.35-5.25 0.5-10.65 0.4l-8.75-0.15-0.15-6.65-0.15-6.6h10.1 10.05zm1.75 29.65c3 2.95 2.5 8.8-0.9 11-1.2 0.8-2.65 0.9-11.9 0.9h-10.5l-0.15-6.2c-0.05-3.45 0-6.55 0.15-6.9 0.2-0.6 2.3-0.7 11-0.55l10.75 0.15z"/>
		<path class="s0" d="m97.5 54.8c0 28.95 0.1 30.25 3.15 36.7 1.05 2.3 2.6 4.35 5.3 7.05 6.15 6.1 13.4 9 24.95 9.95 10.65 0.85 21-0.7 28.55-4.3 5.05-2.45 10.7-8 12.9-12.7 3.05-6.45 3.15-7.75 3.15-36.7v-26.3h-12.5-12.5v24.95c0 27.8-0.05 28.15-3.4 32.05-2.85 3.35-5.05 4.25-10.6 4.25-5.5 0-7.6-0.85-10.65-4.2-3.3-3.65-3.35-4.25-3.35-32.15v-24.9h-12.5-12.5z"/>
		<path class="s0" d="m193 67.95v39.55h12.5 12.5v-14.5-14.55l4.8 0.15 4.8 0.15 6.9 14.25 6.9 14.25 14.05 0.15c7.75 0.05 14.05 0 14.05-0.2 0-0.15-3.8-7.45-8.5-16.25-4.65-8.8-8.5-16.15-8.45-16.35 0-0.2 1.3-0.95 2.9-1.7 9.1-4.3 14-15.7 11.3-26.15-2.25-8.5-8.15-14.45-17.05-17.05-2.6-0.75-6.2-0.9-29.8-1.05l-26.9-0.25zm44.8-20.65c2.6 1.25 3.9 3.4 3.95 6.5 0 2.85-0.9 4.5-3.45 6.4-1.25 0.95-2.2 1.05-10.85 1.2l-9.45 0.2v-7.55-7.55h9.05c7.3 0 9.4 0.15 10.75 0.8z"/>
		<path class="s0" d="m377.5 68v39.5h34.5 34.5v-9.5-9.5h-22-22v-6-6h18.5 18.5v-9-9h-18.5-18.5v-5.5-5.5h21.5 21.5v-9.5-9.5h-34-34z"/>
		<path class="s0" d="m460.5 67.95v39.55h12.5 12.5v-14.5-14.55l4.8 0.15 4.8 0.15 6.9 14.25 6.9 14.25 14.05 0.15c7.75 0.05 14.05 0 14.05-0.2 0-0.15-3.8-7.45-8.5-16.25-4.65-8.8-8.5-16.15-8.45-16.35 0-0.2 1.3-0.95 2.9-1.7 9.1-4.3 14-15.7 11.3-26.15-2.25-8.5-8.15-14.45-17.05-17.05-2.6-0.75-6.2-0.9-29.8-1.05l-26.9-0.25zm44.8-20.65c2.6 1.25 3.9 3.4 3.95 6.5 0 2.85-0.9 4.5-3.45 6.4-1.25 0.95-2.2 1.05-10.85 1.2l-9.45 0.2v-7.55-7.55h9.05c7.3 0 9.4 0.15 10.75 0.8z"/>
		<path class="s0" d="m721.5 68v39.5h12.5 12.5v-15-15h14 14v15 15h12.75 12.75l-0.1-39.4-0.15-39.35h-12.5-12.5l-0.15 14.35-0.1 14.4h-14-14v-14.5-14.5h-12.5-12.5z"/>
		<path class="s0" d="m912.5 68v39.5h11.5 11.5v-19.05c0-10.45 0.2-18.95 0.4-18.85 0.25 0.05 7.75 8.6 16.65 18.9l16.25 18.75 11.1 0.15 11.1 0.1v-39.5-39.5h-11.5-11.5l-0.1 19.55-0.15 19.6-16.65-19.6-16.7-19.55h-10.95-10.95z"/>
	</g>
</svg>